<svg xmlns="http://www.w3.org/2000/svg" version="1.1" xmlns:xlink="http://www.w3.org/1999/xlink" xmlns:svgjs="http://svgjs.dev/svgjs" width="1500" height="1500" viewBox="0 0 1500 1500"><rect width="1500" height="1500" fill="#000000"></rect><g transform="matrix(0.6666666666666666,0,0,0.6666666666666666,249.85778443113782,249.85778443113765)"><svg viewBox="0 0 334 334" data-background-color="#f8f5f0" preserveAspectRatio="xMidYMid meet" height="1500" width="1500" xmlns="http://www.w3.org/2000/svg" xmlns:xlink="http://www.w3.org/1999/xlink"><g id="tight-bounds" transform="matrix(1,0,0,1,0.04749999999998522,0.04750000000001364)"><svg viewBox="0 0 333.90454557049503 333.90454557049503" height="333.90454557049503" width="333.90454557049503"><g><svg></svg></g><g><svg viewBox="0 0 333.90454557049503 333.90454557049503" height="333.90454557049503" width="333.90454557049503"><g><path d="M0 166.952c0-92.205 74.747-166.952 166.952-166.952 92.205 0 166.952 74.747 166.953 166.952 0 92.205-74.747 166.952-166.953 166.953-92.205 0-166.952-74.747-166.952-166.953zM166.952 316.63c82.665 0 149.677-67.013 149.678-149.678 0-82.665-67.013-149.677-149.678-149.677-82.665 0-149.677 67.013-149.677 149.677 0 82.665 67.013 149.677 149.677 149.678z" data-fill-palette-color="tertiary" fill="#ffffff" stroke="transparent"></path><ellipse rx="160.27418187383762" ry="160.27418187383762" cx="166.95227278524752" cy="166.95227278524752" fill="#ffffff" stroke="transparent" stroke-width="0" fill-opacity="1" data-fill-palette-color="tertiary"></ellipse></g><g transform="matrix(1,0,0,1,83.56049803769179,71.17305217166896)"><svg viewBox="0 0 166.78354949511146 191.55844122715712" height="191.55844122715712" width="166.78354949511146"><g><svg viewBox="0 0 166.78354949511146 191.55844122715712" height="191.55844122715712" width="166.78354949511146"><g><svg viewBox="0 0 166.78354949511146 191.55844122715712" height="191.55844122715712" width="166.78354949511146"><g><svg viewBox="0 0 166.78354949511146 191.55844122715712" height="191.55844122715712" width="166.78354949511146"><g id="textblocktransform"><svg viewBox="0 0 166.78354949511146 191.55844122715712" height="191.55844122715712" width="166.78354949511146" id="textblock"><g><svg viewBox="0 0 166.78354949511146 191.55844122715712" height="191.55844122715712" width="166.78354949511146"><g transform="matrix(1,0,0,1,0,0)"><svg width="166.78354949511146" viewBox="2.5 -37.5 32.65 37.5" height="191.55844122715712" data-palette-color="#f8f5f0"><path d="M16.35-20.5L33.85-1.1Q34.05-0.85 34.58-0.9 35.1-0.95 35.15-0.95L35.15-0.95 35.15 0 23.85 0 23.85-0.95Q24.55-0.95 24.65-1.1 24.75-1.25 24.5-1.5L24.5-1.5 11.65-15.8 10-14.1 10-1.5Q10-1.25 10.38-1.1 10.75-0.95 11.1-0.95L11.1-0.95 11.1 0 2.5 0 2.5-0.95Q2.85-0.95 3.23-1.1 3.6-1.25 3.6-1.5L3.6-1.5 3.6-36Q3.6-36.25 3.23-36.4 2.85-36.55 2.5-36.55L2.5-36.55 2.5-37.5 11.1-37.5 11.1-36.55Q10.75-36.55 10.38-36.4 10-36.25 10-36L10-36 10-22.9 23.1-36.1Q23.2-36.2 23.2-36.3L23.2-36.3Q23.2-36.55 22.4-36.55L22.4-36.55 22.4-37.5 33.75-37.5 33.75-36.55 32.8-36.6Q32.35-36.6 32.1-36.45L32.1-36.45 16.35-20.5Z" opacity="1" transform="matrix(1,0,0,1,0,0)" fill="#000000" class="wordmark-text-0" data-fill-palette-color="quaternary" id="text-0"></path></svg></g></svg></g></svg></g></svg></g><g></g></svg></g></svg></g></svg></g></svg></g><defs></defs></svg><rect width="333.90454557049503" height="333.90454557049503" fill="none" stroke="none" visibility="hidden"></rect></g></svg></g></svg>